<svg version="1" xmlns="http://www.w3.org/2000/svg" width="666.667" height="666.667" viewBox="0 0 500.000000 500.000000"><path d="M104 258.5V443h69V335.2l62.3-.5c68.1-.5 68.7-.5 89.2-6.8 45.2-13.9 76.6-49.4 86.2-97.6 2.4-12.2 2.4-39.4 0-51.6-10.3-51.4-45.4-88.4-95-100.2C297.8 74.3 290.5 74 195 74h-91v184.5zm192.5-116.2c23.2 6.6 39.7 23.5 45.6 46.5 1.2 4.8 1.9 10.8 1.9 16.6-.1 30.4-16.4 53.4-44.5 62.7-7 2.3-7.4 2.4-66.7 2.7l-59.8.3v-64.9c0-35.7.3-65.2.7-65.6.4-.4 26.9-.6 58.8-.4 51.1.4 58.7.6 64 2.1z"/></svg>